HIERARCHY
ROOT Hips
{
	OFFSET 0.00000 0.00000 0.00000
	CHANNELS 6 Xposition Yposition Zposition Zrotation Yrotation Xrotation 
	JOINT LHipJoint
	{
		OFFSET 0 0 0
		CHANNELS 3 Zrotation Yrotation Xrotation
		JOINT LeftUpLeg
		{
			OFFSET 1.37590 -1.78394 0.89329
			CHANNELS 3 Zrotation Yrotation Xrotation
			JOINT LeftLeg
			{
				OFFSET 2.47928 -6.81178 0.00000
				CHANNELS 3 Zrotation Yrotation Xrotation
				JOINT LeftFoot
				{
					OFFSET 2.63345 -7.23535 0.00000
					CHANNELS 3 Zrotation Yrotation Xrotation
					JOINT LeftToeBase
					{
						OFFSET 0.23938 -0.65768 2.27012
						CHANNELS 3 Zrotation Yrotation Xrotation
						End Site
						{
							OFFSET 0.00000 -0.00000 1.18363
						}
					}
				}
			}
		}
	}
	JOINT RHipJoint
	{
		OFFSET 0 0 0
		CHANNELS 3 Zrotation Yrotation Xrotation
		JOINT RightUpLeg
		{
			OFFSET -1.33617 -1.78394 0.89329
			CHANNELS 3 Zrotation Yrotation Xrotation
			JOINT RightLeg
			{
				OFFSET -2.56922 -7.05888 0.00000
				CHANNELS 3 Zrotation Yrotation Xrotation
				JOINT RightFoot
				{
					OFFSET -2.56568 -7.04915 0.00000
					CHANNELS 3 Zrotation Yrotation Xrotation
					JOINT RightToeBase
					{
						OFFSET -0.27533 -0.75646 2.18105
						CHANNELS 3 Zrotation Yrotation Xrotation
						End Site
						{
							OFFSET -0.00000 -0.00000 1.15233
						}
					}
				}
			}
		}
	}
	JOINT LowerBack
	{
		OFFSET 0 0 0
		CHANNELS 3 Zrotation Yrotation Xrotation
		JOINT Spine
		{
			OFFSET 0.06190 2.15152 -0.00935
			CHANNELS 3 Zrotation Yrotation Xrotation
			JOINT Spine1
			{
				OFFSET 0.06334 2.15332 0.00872
				CHANNELS 3 Zrotation Yrotation Xrotation
				JOINT Neck
				{
					OFFSET 0 0 0
					CHANNELS 3 Zrotation Yrotation Xrotation
					JOINT Neck1
					{
						OFFSET -0.04202 1.66908 0.23524
						CHANNELS 3 Zrotation Yrotation Xrotation
						JOINT Head
						{
							OFFSET 0.07510 1.69357 -0.24440
							CHANNELS 3 Zrotation Yrotation Xrotation
							End Site
							{
								OFFSET 0.02556 1.71719 -0.11000
							}
						}
					}
				}
				JOINT LeftShoulder
				{
					OFFSET 0 0 0
					CHANNELS 3 Zrotation Yrotation Xrotation
					JOINT LeftArm
					{
						OFFSET 3.67168 1.26306 -0.41342
						CHANNELS 3 Zrotation Yrotation Xrotation
						JOINT LeftForeArm
						{
							OFFSET 4.68510 -0.00000 -0.00000
							CHANNELS 3 Zrotation Yrotation Xrotation
							JOINT LeftHand
							{
								OFFSET 3.39626 -0.00000 -0.00000
								CHANNELS 3 Zrotation Yrotation Xrotation
								JOINT LeftFingerBase
								{
									OFFSET 0 0 0
									CHANNELS 3 Zrotation Yrotation Xrotation
									JOINT LeftHandIndex1
									{
										OFFSET 0.48608 -0.00000 -0.00000
										CHANNELS 3 Zrotation Yrotation Xrotation
										End Site
										{
											OFFSET 0.39189 -0.00000 -0.00000
										}
									}
								}
								JOINT LThumb
								{
									OFFSET 0 0 0
									CHANNELS 3 Zrotation Yrotation Xrotation
									End Site
									{
										OFFSET 0.39787 -0.00000 0.39787
									}
								}
							}
						}
					}
				}
				JOINT RightShoulder
				{
					OFFSET 0 0 0
					CHANNELS 3 Zrotation Yrotation Xrotation
					JOINT RightArm
					{
						OFFSET -3.04136 1.42992 -0.76390
						CHANNELS 3 Zrotation Yrotation Xrotation
						JOINT RightForeArm
						{
							OFFSET -5.55576 -0.00000 -0.00000
							CHANNELS 3 Zrotation Yrotation Xrotation
							JOINT RightHand
							{
								OFFSET -3.32774 -0.00000 -0.00000
								CHANNELS 3 Zrotation Yrotation Xrotation
								JOINT RightFingerBase
								{
									OFFSET 0 0 0
									CHANNELS 3 Zrotation Yrotation Xrotation
									JOINT RightHandIndex1
									{
										OFFSET -0.50763 -0.00000 -0.00000
										CHANNELS 3 Zrotation Yrotation Xrotation
										End Site
										{
											OFFSET -0.40926 -0.00000 -0.00000
										}
									}
								}
								JOINT RThumb
								{
									OFFSET 0 0 0
									CHANNELS 3 Zrotation Yrotation Xrotation
									End Site
									{
										OFFSET -0.41551 -0.00000 0.41551
									}
								}
							}
						}
					}
				}
			}
		}
	}
}
MOTION
Frames: 15
Frame Time: .0083333
30.7868 17.9208 6.9067 0 0 0 0 0 0 -21 0 0 0 0 0 0 0 0 0 0 0 0 0 0 21 0 0 0 0 0 0 0 0 0 0 0 0 0 0 0 0 0 0 0 0 0 0 -16 0 0 21 0 0 11 0 0 0 -8 0 0 0 0 0 0 0 0 0 0 0 0 0 0 0 0 0 0 0 0 8 0 0 0 0 0 0 0 0 0 0 0 0 0 0 0 0 0
30.7868 17.9208 6.9067 -60.1009 -83.3395 68.4679 0.0000 0.0000 0.0000 -7.2680 -7.7353 -21.8707 9.9860 17.4020 59.4416 -0.0004 -1.1800 1.6330 0.6346 -5.0969 -14.1851 0.0000 0.0000 0.0000 31.4847 5.8597 -11.7963 -0.6522 -5.1658 14.3819 -0.0896 -4.2362 -8.7554 -1.5986 -7.9744 22.6364 5.3288 1.4275 1.0033 4.1492 2.1020 -3.6996 1.2199 0.8798 -4.3602 -8.6501 -7.4502 -18.6698 6.6382 -9.2408 16.2482 2.4118 -4.2247 8.8728 0.0000 -0.0000 0.0000 -76.9493 11.3777 -0.3069 16.1336 -25.7015 -3.7037 -0.0000 -0.0000 22.8354 5.4876 13.7330 1.3065 -7.1250 0.0000 -0.0000 -19.7256 42.8720 1.0813 0.0000 -0.0000 0.0000 81.4152 7.9328 13.4158 -15.5784 24.9457 -3.4662 0.0000 0.0000 4.2460 -13.3857 -27.1294 6.1932 7.1250 -0.0000 -0.0000 18.4150 -56.7912 -5.4489
30.6522 17.9277 6.8907 -62.3534 -83.3341 70.5635 0.0000 0.0000 0.0000 -7.0291 -7.8445 -22.7970 10.0012 17.4105 59.4922 -0.0026 -0.9236 0.5385 0.6139 -5.0144 -13.9498 0.0000 0.0000 0.0000 31.7791 5.6893 -10.9240 -0.6212 -5.0439 14.0338 -0.1011 -4.0236 -8.8239 -1.5849 -7.9418 22.5375 5.5174 1.5222 1.1167 4.1264 2.2434 -3.7048 1.0826 0.9414 -4.4208 -8.7143 -7.5812 -18.8434 6.7188 -9.4185 16.4126 2.4171 -4.2985 8.9817 -0.0000 0.0000 0.0000 -76.4836 11.4447 -1.5084 16.6904 -26.4478 -3.9485 -0.0000 -0.0000 21.2454 5.5732 13.8152 1.3348 -7.1250 0.0000 -0.0000 -19.6794 42.9585 1.0347 -0.0000 0.0000 0.0000 81.2254 8.5078 14.2076 -16.5934 26.3186 -3.9054 0.0000 0.0000 3.0896 -12.8518 -27.3293 5.9795 7.1250 -0.0000 -0.0000 19.0843 -56.8700 -5.6938
30.5212 17.9323 6.8756 -64.7886 -83.4164 72.8828 0.0000 0.0000 0.0000 -6.9429 -8.0921 -23.7895 10.0282 17.4257 59.5824 0.0004 -0.6953 -0.5808 0.6195 -5.0372 -14.0148 0.0000 0.0000 0.0000 31.9646 5.5276 -10.1222 -0.5908 -4.9210 13.6833 -0.1217 -3.7352 -9.0384 -1.6301 -8.0490 22.8630 5.6728 1.6666 0.4342 4.0361 2.3590 -3.3879 0.9173 1.0120 -3.6893 -8.8047 -7.6396 -18.2918 7.0087 -9.5439 15.8250 2.5291 -4.3501 8.7151 0.0000 0.0000 0.0000 -75.9408 11.1073 -2.8985 17.2545 -27.1921 -4.2030 -0.0000 -0.0000 19.4521 5.3334 14.2091 1.3127 -7.1250 0.0000 -0.0000 -20.0205 43.3045 0.8753 0.0000 0.0000 0.0000 81.1100 9.4204 14.6942 -17.6847 27.7516 -4.4014 0.0000 0.0000 1.8979 -12.0701 -27.2863 5.5988 7.1250 -0.0000 -0.0000 19.8499 -56.6681 -5.8365
30.3890 17.9357 6.8602 -67.2136 -83.4132 75.1674 0.0000 0.0000 0.0000 -6.7826 -8.2128 -24.6039 9.9019 17.3543 59.1601 0.0082 -0.6177 -1.6111 0.5678 -4.8260 -13.4129 0.0000 0.0000 0.0000 32.2272 5.5387 -9.2021 -0.5698 -4.8344 13.4369 -0.1398 -3.5525 -9.2851 -1.6997 -8.2104 23.3549 5.8421 1.7698 0.7146 3.9803 2.5291 -3.4467 0.7516 1.0853 -3.8967 -8.7783 -7.6842 -18.4903 7.0851 -9.6140 15.8690 2.5347 -4.3683 8.7736 0.0000 -0.0000 0.0000 -75.5224 11.2194 -4.2821 18.0403 -28.2087 -4.5683 -0.0000 -0.0000 16.4200 4.4190 14.6798 1.1219 -7.1250 0.0000 -0.0000 -20.9773 43.6480 0.7343 0.0000 -0.0000 0.0000 81.0272 9.7843 15.1844 -19.0692 29.5046 -5.0649 0.0000 0.0000 0.0509 -11.4163 -27.1773 5.2695 7.1250 -0.0000 -0.0000 20.4396 -56.4323 -5.9017
30.2576 17.9389 6.8453 -69.4977 -83.4089 77.3300 0.0000 0.0000 0.0000 -6.6286 -8.3804 -25.4711 9.8087 17.3009 58.8470 0.0202 -0.4162 -2.5668 0.5389 -4.7033 -13.0643 0.0000 0.0000 0.0000 32.4693 5.4589 -8.3577 -0.5448 -4.7288 13.1365 -0.1553 -3.3564 -9.4596 -1.7237 -8.2652 23.5225 6.0196 1.8757 0.7116 3.9169 2.6712 -3.4094 0.5832 1.1511 -3.8418 -8.7955 -7.7378 -18.4502 7.2196 -9.7068 15.7485 2.5708 -4.4011 8.7418 0.0000 -0.0000 0.0000 -75.0865 11.2519 -5.5522 18.8686 -29.2551 -4.9665 -0.0000 -0.0000 13.5215 3.6030 15.0738 0.9382 -7.1250 0.0000 -0.0000 -21.8274 43.9257 0.6094 0.0000 -0.0000 0.0000 80.9279 10.2897 15.6106 -20.4485 31.1789 -5.7617 0.0000 -0.0000 -1.5652 -10.7893 -27.2627 4.9889 7.1250 -0.0000 -0.0000 21.1243 -56.3848 -6.0872
30.1270 17.9410 6.8308 -71.6667 -83.3849 79.3897 0.0000 0.0000 0.0000 -6.4767 -8.5536 -26.3104 9.6739 17.2224 58.3929 0.0343 -0.2001 -3.4323 0.5181 -4.6132 -12.8085 0.0000 0.0000 0.0000 32.7149 5.3817 -7.5345 -0.5203 -4.6228 12.8358 -0.1695 -3.1816 -9.6218 -1.7351 -8.2911 23.6017 6.2028 1.9768 0.7395 3.8516 2.8116 -3.4025 0.4088 1.2144 -3.8348 -8.8057 -7.7775 -18.3526 7.3518 -9.7853 15.6049 2.6088 -4.4291 8.6906 0.0000 0.0000 0.0000 -74.6842 11.3524 -6.7823 19.8429 -30.4526 -5.4515 -0.0000 -0.0000 10.2258 2.5355 15.5511 0.6802 -7.1250 0.0000 -0.0000 -22.9322 44.2477 0.4506 0.0000 0.0000 0.0000 80.8430 10.7142 15.9700 -21.9679 32.9407 -6.5684 0.0000 -0.0000 -3.2623 -10.2300 -27.3982 4.7473 7.1250 -0.0000 -0.0000 21.7730 -56.3970 -6.2933
29.9970 17.9421 6.8167 -73.6987 -83.3381 81.3247 0.0000 0.0000 0.0000 -6.3220 -8.7258 -27.1177 9.4969 17.1170 57.7931 0.0497 0.0244 -4.2182 0.5108 -4.5814 -12.7183 0.0000 0.0000 0.0000 32.9674 5.2939 -6.7399 -0.4967 -4.5182 12.5394 -0.1823 -3.0207 -9.7638 -1.7303 -8.2801 23.5681 6.3929 2.0681 0.8179 3.7907 2.9458 -3.4245 0.2332 1.2724 -3.8858 -8.8059 -7.8084 -18.2651 7.4664 -9.8507 15.4776 2.6409 -4.4519 8.6443 -0.0000 -0.0000 0.0000 -74.3315 11.5204 -7.9650 20.9878 -31.8142 -6.0435 -0.0000 -0.0000 6.6501 1.2812 16.1364 0.3561 -7.1250 0.0000 -0.0000 -24.2494 44.6401 0.2294 -0.0000 -0.0000 0.0000 80.7619 11.0743 16.2878 -23.6348 34.7757 -7.4973 0.0000 -0.0000 -4.9772 -9.7503 -27.5816 4.5490 7.1250 -0.0000 -0.0000 22.3743 -56.4689 -6.5191
29.8677 17.9421 6.8031 -75.5964 -83.2754 83.1425 0.0000 0.0000 0.0000 -6.1711 -8.9046 -27.8969 9.2813 16.9854 57.0581 0.0655 0.2519 -4.9309 0.5170 -4.6086 -12.7956 0.0000 0.0000 0.0000 33.2184 5.1803 -5.9877 -0.4737 -4.4141 12.2447 -0.1940 -2.8611 -9.8830 -1.7093 -8.2323 23.4220 6.5845 2.1527 0.9102 3.7327 3.0738 -3.4656 0.0592 1.3259 -3.9640 -8.8035 -7.8320 -18.1579 7.5724 -9.9066 15.3507 2.6716 -4.4717 8.5935 -0.0000 -0.0000 0.0000 -74.0233 11.7444 -9.0894 22.3127 -33.3286 -6.7569 -0.0000 -0.0000 2.9452 0.0345 16.8480 0.0100 -7.1250 0.0000 -0.0000 -25.6252 45.1383 -0.0938 -0.0000 -0.0000 0.0000 80.6803 11.3879 16.5615 -25.4470 36.6574 -8.5554 0.0000 -0.0000 -6.6180 -9.3534 -27.7877 4.3911 7.1250 -0.0000 -0.0000 22.9099 -56.5773 -6.7481
29.7392 17.9412 6.7899 -77.4029 -83.2032 84.8884 0.0000 0.0000 0.0000 -6.0262 -9.0804 -28.6487 9.0286 16.8261 56.1890 0.0820 0.4558 -5.5936 0.5366 -4.6937 -13.0371 0.0000 0.0000 0.0000 33.4612 5.0511 -5.2832 -0.4532 -4.3187 11.9750 -0.2060 -2.6901 -10.0015 -1.6805 -8.1662 23.2201 6.7710 2.2350 0.9568 3.6784 3.1927 -3.4778 -0.1058 1.3771 -3.9858 -8.7862 -7.8496 -18.0879 7.6691 -9.9503 15.2023 2.6977 -4.4850 8.5395 0.0000 0.0000 0.0000 -73.7596 11.9435 -10.1524 23.8257 -34.9794 -7.6064 -0.0000 0.0000 -0.7366 -1.0117 17.7558 -0.3086 -7.1250 0.0000 -0.0000 -26.9341 45.8247 -0.5914 0.0000 0.0000 0.0000 80.5902 11.7384 16.7771 -27.4043 38.5620 -9.7501 0.0000 -0.0000 -8.1234 -9.0330 -27.9738 4.2646 7.1250 -0.0000 -0.0000 23.3575 -56.6819 -6.9504
29.6110 17.9393 6.7770 -79.1158 -83.1216 86.5580 0.0000 0.0000 0.0000 -5.8883 -9.2561 -29.3631 8.7391 16.6368 55.1833 0.0992 0.6273 -6.2114 0.5613 -4.7986 -13.3351 0.0000 0.0000 0.0000 33.6943 4.8976 -4.6257 -0.4349 -4.2320 11.7302 -0.2184 -2.4963 -10.1108 -1.6473 -8.0891 22.9850 6.9538 2.3115 0.9916 3.6281 3.3017 -3.4726 -0.2636 1.4245 -3.9829 -8.7579 -7.8656 -18.1002 7.7529 -9.9857 15.0734 2.7165 -4.4925 8.5046 0.0000 0.0000 0.0000 -73.5287 12.1215 -11.1580 25.5126 -36.7234 -8.5946 -0.0000 0.0000 -4.2695 -1.6971 18.7712 -0.5463 -7.1250 0.0000 -0.0000 -28.0094 46.6395 -1.2281 0.0000 0.0000 0.0000 80.4889 12.1235 16.9447 -29.5031 40.4636 -11.0857 0.0000 -0.0000 -9.4515 -8.8079 -28.1399 4.1797 7.1250 -0.0000 -0.0000 23.6978 -56.7871 -7.1211
29.4836 17.9366 6.7650 -80.8153 -83.0339 88.2443 0.0000 0.0000 0.0000 -5.7560 -9.4227 -30.0546 8.4150 16.4162 54.0441 0.1167 0.7665 -6.7796 0.5833 -4.8901 -13.5953 0.0000 0.0000 0.0000 33.9134 4.7378 -4.0371 -0.4203 -4.1610 11.5300 -0.2311 -2.2745 -10.2107 -1.6077 -7.9960 22.7019 7.1350 2.3866 1.0067 3.5754 3.4076 -3.4835 -0.4221 1.4698 -3.9848 -8.7393 -7.8686 -18.0743 7.8513 -10.0069 14.9419 2.7449 -4.4939 8.4624 -0.0000 -0.0000 0.0000 -73.3011 12.3428 -12.0571 27.3757 -38.5351 -9.7323 -0.0000 0.0000 -7.5981 -1.9168 19.8041 -0.6496 -7.1250 0.0000 -0.0000 -28.7184 47.5210 -1.9398 -0.0000 -0.0000 0.0000 80.3843 12.4860 17.0702 -31.7450 42.3429 -12.5687 0.0000 -0.0000 -10.5836 -8.6611 -28.2833 4.1283 7.1250 -0.0000 -0.0000 23.9455 -56.8872 -7.2607
29.3562 17.9326 6.7530 -82.4963 -82.9426 89.9312 0.0000 0.0000 0.0000 -5.6317 -9.5775 -30.7052 8.0587 16.1623 52.7739 0.1341 0.8780 -7.2947 0.6017 -4.9654 -13.8099 0.0000 0.0000 0.0000 34.1208 4.5845 -3.4945 -0.4087 -4.1040 11.3695 -0.2444 -2.0322 -10.3116 -1.5664 -7.8975 22.4033 7.2640 2.4669 1.0525 3.5510 3.5244 -3.5238 -0.5248 1.5202 -4.0383 -8.7450 -7.8708 -18.0572 7.9298 -10.0183 14.8441 2.7714 -4.4934 8.4323 -0.0000 0.0000 0.0000 -73.1154 12.5939 -12.8665 29.4008 -40.3742 -11.0194 -0.0000 0.0000 -10.6150 -1.7364 20.7998 -0.6168 -7.1250 0.0000 -0.0000 -29.0841 48.4198 -2.6637 -0.0000 0.0000 0.0000 80.2165 12.8004 17.1448 -34.1315 44.1819 -14.2047 0.0000 -0.0000 -11.5491 -8.6112 -28.3901 4.1184 7.1250 -0.0000 -0.0000 24.0713 -56.9737 -7.3532
29.2289 17.9272 6.7411 -84.2061 -82.8491 91.6674 0.0000 0.0000 0.0000 -5.5147 -9.7161 -31.3125 7.6717 15.8724 51.3713 0.1507 0.9726 -7.7538 0.6200 -5.0389 -14.0195 0.0000 0.0000 0.0000 34.3175 4.4543 -2.9962 -0.4006 -4.0635 11.2554 -0.2582 -1.7843 -10.4214 -1.5249 -7.7970 22.0993 7.3868 2.5492 1.0776 3.5210 3.6413 -3.5599 -0.6291 1.5713 -4.0748 -8.7531 -7.8666 -18.0474 8.0241 -10.0225 14.7452 2.8045 -4.4880 8.4037 0.0000 0.0000 0.0000 -72.9131 12.8177 -13.6295 31.5745 -42.2053 -12.4540 -0.0000 0.0000 -13.2803 -1.2793 21.7214 -0.4735 -7.1250 0.0000 -0.0000 -29.1849 49.2930 -3.3483 0.0000 0.0000 0.0000 80.0390 13.1369 17.1812 -36.6427 45.9501 -15.9827 0.0000 -0.0000 -12.3746 -8.6623 -28.4538 4.1516 7.1250 -0.0000 -0.0000 24.0662 -57.0420 -7.3920
29.1013 17.9203 6.7287 -85.9377 -82.7390 93.4383 0.0000 0.0000 0.0000 -5.3858 -9.8317 -31.8685 7.2580 15.5453 49.8434 0.1659 1.0685 -8.1607 0.6302 -5.0796 -14.1358 0.0000 0.0000 0.0000 34.5253 4.3565 -2.5244 -0.3952 -4.0366 11.1797 -0.2723 -1.5416 -10.5430 -1.4839 -7.6963 21.7954 7.5061 2.6409 1.0962 3.4914 3.7715 -3.6229 -0.7316 1.6275 -4.1348 -8.7680 -7.8523 -17.9244 8.1306 -10.0218 14.6198 2.8466 -4.4833 8.3473 -0.0000 -0.0000 0.0000 -72.6819 13.0598 -14.3358 33.8934 -44.0056 -14.0389 -0.0000 0.0000 -15.5882 -0.6749 22.5358 -0.2587 -7.1250 0.0000 -0.0000 -29.1072 50.0968 -3.9527 -0.0000 -0.0000 0.0000 79.8428 13.4200 17.1714 -39.2811 47.6382 -17.9062 0.0000 -0.0000 -13.0834 -8.7867 -28.4619 4.2131 7.1250 -0.0000 -0.0000 23.9478 -57.0752 -7.3722
